<svg width="217" height="226" viewBox="0 0 217 226" fill="none" xmlns="http://www.w3.org/2000/svg">
<path d="M37.4225 39.6076C44.4633 45.314 47.0916 44.8806 60.3052 44.0018L184.87 36.5376C187.522 36.5376 185.316 33.889 184.436 33.4556L163.748 18.5273C159.781 15.4573 154.5 11.9299 144.385 12.8087L23.7628 21.5972C19.3743 22.0306 18.4942 24.2338 20.2424 25.9914L37.4225 39.6076ZM44.8974 68.5975V199.461C44.8974 206.504 48.4178 209.129 56.3508 208.695L193.237 200.786C201.158 200.352 202.038 195.513 202.038 189.794V59.809C202.038 54.1025 199.844 51.0205 194.997 51.466L51.9382 59.809C46.6576 60.2424 44.8974 62.879 44.8974 68.5975ZM180.048 75.6162C180.916 79.565 180.048 83.5258 176.069 83.9713L169.474 85.2835V181.897C163.748 184.979 158.467 186.724 154.066 186.724C147.026 186.724 145.265 184.533 139.985 177.948L96.8356 110.313V175.757L110.495 178.827C110.495 178.827 110.495 186.724 99.4759 186.724L69.1063 188.482C68.2262 186.724 69.1063 182.342 72.1926 181.463L80.1136 179.272V92.7477L69.1063 91.8689C68.2262 87.908 70.4324 82.2016 76.5932 81.7561L109.169 79.565L154.066 148.091V87.4746L142.613 86.1624C141.745 81.3227 145.265 77.8194 149.666 77.3739L180.048 75.6162ZM13.6356 9.73879L139.093 0.516919C154.488 -0.807371 158.455 0.0835142 168.148 7.10225L208.187 35.2133C214.794 40.041 217 41.3532 217 46.6263V200.786C217 210.453 213.479 216.16 201.158 217.038L55.4586 225.827C46.2115 226.26 41.811 224.948 36.9644 218.796L7.47485 180.584C2.19423 173.554 0 168.292 0 162.128V25.1006C0 17.203 3.50836 10.6176 13.6356 9.73879Z" fill="white"/>
</svg>
